<?xml version="1.0" encoding="utf-8"?>
<!-- Generator: Adobe Illustrator 22.1.0, SVG Export Plug-In . SVG Version: 6.00 Build 0)  -->
<svg version="1.1" id="Capa_4" xmlns="http://www.w3.org/2000/svg" xmlns:xlink="http://www.w3.org/1999/xlink" x="0px" y="0px"
	 viewBox="0 0 1024 1024" style="enable-background:new 0 0 1024 1024;" xml:space="preserve">
<style type="text/css">
	.st0{fill:#D32F2F;}
</style>
<title>logoe</title>
<image style="display:none;overflow:visible;enable-background:new    ;" width="501" height="493" xlink:href="4CCDBF6B.jpg"  transform="matrix(1.9438 0 0 1.9438 68.4365 49.0794)">
</image>
<ellipse transform="matrix(0.7071 -0.7071 0.7071 0.7071 -557.2302 447.6624)" class="st0" cx="261.8" cy="896.5" rx="48.9" ry="48.9"/>
<image style="display:none;overflow:visible;opacity:0.6;" width="837" height="823" xlink:href="LogoModified.png"  transform="matrix(1 0 0 1 162.2 123.0999)">
</image>
<path class="st0" d="M798.4,883.8C786,834,777.4,749.3,702.9,687c137.5-48.1,295.9-120.1,295.9-120.1s-126.8-12.8-228.5-93
	c44-174.5,23.6-350.8,23.6-350.8s-145.8,87.5-272.3,199.1C415,249.9,329,129.6,329,129.6s54.7,125.4,7,309
	c-60.5-17.1-123.1-16.6-173.4-5.2C349,543,370,639,348.6,733.6C526,572,629.2,370.5,688,275.3C679,675,455,694,332.3,867.3
	C423,811,489,700,798.4,883.8z"/>
</svg>
